<svg width="81" height="80" viewBox="0 0 81 80" fill="none" xmlns="http://www.w3.org/2000/svg">
<path d="M37.9329 69.3888C57.6385 69.3888 73.6126 48.6685 73.6126 23.1078V11.0759H43.0672C23.3616 11.0759 7.39307 31.7851 7.39307 57.3514V69.3888H37.9329Z" fill="#FFEAB6"/>
<path d="M73.352 11.0759L7.39307 69.034V57.3514C7.39307 31.7851 23.3672 11.0759 43.0672 11.0759H73.352Z" fill="#FFF0D1"/>
<path d="M56.2125 15.7288H23.8484C21.9991 15.7288 20.5 17.2367 20.5 19.0969V62.6317C20.5 64.4919 21.9991 65.9999 23.8484 65.9999H56.2125C58.0617 65.9999 59.5609 64.4919 59.5609 62.6317V19.0969C59.5609 17.2367 58.0617 15.7288 56.2125 15.7288Z" fill="#D1C9DD"/>
<path d="M29.3755 65.9999H23.8484C22.0023 65.9999 20.5 64.4887 20.5 62.6262V19.1025C20.5 17.24 22.0023 15.7344 23.8484 15.7344H29.3755C27.5294 15.7344 26.0271 17.24 26.0271 19.1025V62.6318C26.0271 64.4943 27.5294 66.0055 29.3755 66.0055V65.9999Z" fill="#C9C0D8"/>
<path d="M41.7105 36.7573H29.3536C28.4688 36.7573 27.7515 37.4789 27.7515 38.3689C27.7515 39.2589 28.4688 39.9805 29.3536 39.9805H41.7105C42.5953 39.9805 43.3126 39.2589 43.3126 38.3689C43.3126 37.4789 42.5953 36.7573 41.7105 36.7573Z" fill="#B2A6C7"/>
<path d="M51.8222 36.7573H48.3907C47.5059 36.7573 46.7886 37.4789 46.7886 38.3689C46.7886 39.2589 47.5059 39.9805 48.3907 39.9805H51.8222C52.7071 39.9805 53.4244 39.2589 53.4244 38.3689C53.4244 37.4789 52.7071 36.7573 51.8222 36.7573Z" fill="#B2A6C7"/>
<path d="M41.7105 43.3374H29.3536C28.4688 43.3374 27.7515 44.0589 27.7515 44.949C27.7515 45.839 28.4688 46.5606 29.3536 46.5606H41.7105C42.5953 46.5606 43.3126 45.839 43.3126 44.949C43.3126 44.0589 42.5953 43.3374 41.7105 43.3374Z" fill="#B2A6C7"/>
<path d="M51.8222 43.3374H48.3907C47.5059 43.3374 46.7886 44.0589 46.7886 44.949C46.7886 45.839 47.5059 46.5606 48.3907 46.5606H51.8222C52.7071 46.5606 53.4244 45.839 53.4244 44.949C53.4244 44.0589 52.7071 43.3374 51.8222 43.3374Z" fill="#B2A6C7"/>
<path d="M41.7105 49.9233H29.3536C28.4688 49.9233 27.7515 50.6449 27.7515 51.5349C27.7515 52.425 28.4688 53.1465 29.3536 53.1465H41.7105C42.5953 53.1465 43.3126 52.425 43.3126 51.5349C43.3126 50.6449 42.5953 49.9233 41.7105 49.9233Z" fill="#B2A6C7"/>
<path d="M51.8222 49.9233H48.3907C47.5059 49.9233 46.7886 50.6449 46.7886 51.5349C46.7886 52.425 47.5059 53.1465 48.3907 53.1465H51.8222C52.7071 53.1465 53.4244 52.425 53.4244 51.5349C53.4244 50.6449 52.7071 49.9233 51.8222 49.9233Z" fill="#B2A6C7"/>
<path d="M41.7105 56.5034H29.3536C28.4688 56.5034 27.7515 57.2249 27.7515 58.115C27.7515 59.005 28.4688 59.7266 29.3536 59.7266H41.7105C42.5953 59.7266 43.3126 59.005 43.3126 58.115C43.3126 57.2249 42.5953 56.5034 41.7105 56.5034Z" fill="#B2A6C7"/>
<path d="M51.8222 56.5034H48.3907C47.5059 56.5034 46.7886 57.2249 46.7886 58.115C46.7886 59.005 47.5059 59.7266 48.3907 59.7266H51.8222C52.7071 59.7266 53.4244 59.005 53.4244 58.115C53.4244 57.2249 52.7071 56.5034 51.8222 56.5034Z" fill="#B2A6C7"/>
<path d="M39.7367 28.6493L42.8966 25.1027C43.2625 24.6901 43.2625 24.0711 42.8966 23.6584L39.7367 20.1119C39.5482 19.9 39.2211 19.8832 39.0105 20.0784L38.2066 20.8256C38.0015 21.0152 37.9849 21.3387 38.1734 21.545L39.7423 23.3071H34.7141C34.4314 23.3071 34.2041 23.5358 34.2041 23.8202V24.9354C34.2041 25.2198 34.4314 25.4485 34.7141 25.4485H39.7423L38.1734 27.2106C37.9849 27.4225 38.0015 27.7404 38.2066 27.93L39.0105 28.6772C39.2211 28.8724 39.5482 28.8556 39.7367 28.6437V28.6493Z" fill="#B2A6C7"/>
<path d="M31.2551 34.0863L28.0952 30.5397C27.7293 30.1271 27.7293 29.5081 28.0952 29.0955L31.2551 25.5489C31.4436 25.337 31.7707 25.3202 31.9813 25.5154L32.7852 26.2626C32.9903 26.4522 33.0069 26.7757 32.8184 26.982L31.2496 28.7441H36.2777C36.5604 28.7441 36.7877 28.9728 36.7877 29.2572V30.3724C36.7877 30.6568 36.5604 30.8855 36.2777 30.8855H31.2496L32.8184 32.6476C33.0069 32.8595 32.9903 33.1774 32.7852 33.367L31.9813 34.1142C31.7707 34.3094 31.4436 34.2926 31.2551 34.0807V34.0863Z" fill="#B2A6C7"/>
<path d="M57.7758 32.2907C64.435 32.2907 69.8333 26.8531 69.8333 20.1454C69.8333 13.4377 64.435 8 57.7758 8C51.1166 8 45.7183 13.4377 45.7183 20.1454C45.7183 26.8531 51.1166 32.2907 57.7758 32.2907Z" fill="#B7D9D0"/>
<path d="M57.7758 29.8651C63.1092 29.8651 67.4329 25.5134 67.4329 20.1454C67.4329 14.7774 63.1092 10.4258 57.7758 10.4258C52.4423 10.4258 48.1187 14.7774 48.1187 20.1454C48.1187 25.5134 52.4423 29.8651 57.7758 29.8651Z" fill="#E3F0EC"/>
<path d="M57.7758 28.5324C52.6645 28.5324 48.4845 24.5341 48.1408 19.4763C48.1242 19.6994 48.1187 19.9169 48.1187 20.1455C48.1187 25.5155 52.4427 29.8651 57.7758 29.8651C63.1088 29.8651 67.4329 25.51 67.4329 20.1455C67.4329 19.9224 67.4273 19.6994 67.4107 19.4763C67.0725 24.5341 62.887 28.5324 57.7758 28.5324Z" fill="#C8E2DB"/>
<path d="M54.4493 24.4948C54.3163 24.4948 54.1777 24.4447 54.0668 24.3499C53.8284 24.138 53.8118 23.7755 54.0225 23.5357L57.1768 20.056V12.7342C57.1768 12.4164 57.4319 12.1543 57.7478 12.1543C58.0638 12.1543 58.3244 12.4108 58.3244 12.7287V20.2735C58.3244 20.4129 58.2745 20.5523 58.1802 20.6583L54.8818 24.2997C54.7709 24.4279 54.6101 24.4948 54.4549 24.4948H54.4493Z" fill="#9FCEC0"/>
<path d="M57.7537 21.5841C58.5375 21.5841 59.1728 20.945 59.1728 20.1566C59.1728 19.3681 58.5375 18.729 57.7537 18.729C56.9699 18.729 56.3345 19.3681 56.3345 20.1566C56.3345 20.945 56.9699 21.5841 57.7537 21.5841Z" fill="#ADD4C9"/>
<path d="M57.7538 20.2513C57.2105 20.2513 56.7338 19.939 56.4954 19.4873C56.3901 19.6881 56.3291 19.9111 56.3291 20.1565C56.3291 20.9483 56.9666 21.5896 57.7483 21.5896C58.5299 21.5896 59.1675 20.9483 59.1675 20.1565C59.1675 19.9167 59.1065 19.6881 59.0012 19.4873C58.7628 19.939 58.2916 20.2513 57.7427 20.2513H57.7538Z" fill="#9FCEC0"/>
</svg>
