<svg width="25" height="24" viewBox="0 0 25 24" fill="none" xmlns="http://www.w3.org/2000/svg">
<path d="M22.2414 13.5731C21.6152 13.3894 20.9645 13.7492 20.7837 14.3723C19.7228 18.0713 16.3173 20.6242 12.461 20.6242C9.20106 20.6242 6.24783 18.7485 4.79253 15.9202H9.71213C10.3614 15.9202 10.8881 15.3935 10.8881 14.7442C10.8881 14.095 10.4079 13.5682 9.75623 13.5682H1.91623C1.26698 13.5682 0.740234 14.095 0.740234 14.7442V22.5842C0.740234 23.2335 1.26698 23.7602 1.91623 23.7602C2.56548 23.7602 3.09223 23.2335 3.09223 22.5842V17.5813C5.04243 20.8398 8.59003 22.9762 12.461 22.9762C17.312 22.9762 21.6436 19.727 23.0009 15.0725C23.2263 14.4061 22.8637 13.7985 22.2414 13.5731ZM23.0891 0.240234C22.4423 0.240234 21.9131 0.766984 21.9131 1.41623V6.41914C19.9678 3.15818 16.4153 1.02423 12.5051 1.02423C7.65413 1.02423 3.3191 4.27342 1.96572 8.92793C1.78344 9.55023 2.14163 10.2019 2.76491 10.3832C3.39407 10.5685 4.04332 10.2056 4.22266 9.58405C5.28743 5.92913 8.69293 3.37623 12.5051 3.37623C15.7651 3.37623 18.7183 5.25195 20.1736 8.08023H15.2491C14.6023 8.08023 14.0731 8.60944 14.0731 9.25624C14.0731 9.90304 14.6023 10.4322 15.2491 10.4322H23.0891C23.7384 10.4322 24.2651 9.90549 24.2651 9.25624V1.41623C24.2651 0.766984 23.7408 0.240234 23.0891 0.240234Z" fill="white"/>
</svg>
