
<svg width="16" height="19" viewBox="0 0 16 19" fill="none" xmlns="http://www.w3.org/2000/svg">
<path d="M15.1094 11.6484L8.85938 17.8984C8.625 18.1328 8.3125 18.25 8 18.25C7.64844 18.25 7.33594 18.1328 7.10156 17.8984L0.851562 11.6484C0.34375 11.1797 0.34375 10.3594 0.851562 9.89062C1.32031 9.38281 2.14062 9.38281 2.60938 9.89062L6.75 13.9922V2C6.75 1.33594 7.29688 0.789062 7.96094 0.789062C8.58594 0.789062 9.25 1.33594 9.25 2V13.9922L13.3516 9.89062C13.8203 9.38281 14.6406 9.38281 15.1094 9.89062C15.6172 10.3594 15.6172 11.1797 15.1094 11.6484Z" fill="white"/>
</svg>
