
<svg width="16" height="19" viewBox="0 0 16 19" fill="none" xmlns="http://www.w3.org/2000/svg">
<path d="M15.1094 9.14844C14.875 9.38281 14.5625 9.5 14.25 9.5C13.8984 9.5 13.5859 9.38281 13.3516 9.14844L9.25 5.04688V17C9.25 17.7031 8.66406 18.25 8 18.25C7.375 18.25 6.75 17.7031 6.75 17V5.04688L2.60938 9.14844C2.14062 9.65625 1.32031 9.65625 0.851562 9.14844C0.34375 8.67969 0.34375 7.85938 0.851562 7.39062L7.10156 1.14062C7.57031 0.632812 8.39062 0.632812 8.85938 1.14062L15.1094 7.39062C15.6172 7.85938 15.6172 8.67969 15.1094 9.14844Z" fill="white"/>
</svg>
