<svg width="29" height="29" viewBox="0 0 29 29" fill="none" xmlns="http://www.w3.org/2000/svg">
<path d="M14.5 0C22.5078 0 29 6.49223 29 14.5C29 22.5078 22.5075 29 14.5 29C6.49252 29 0 22.5095 0 14.5C0 6.49049 6.49136 0 14.5 0Z" fill="#53AE94"/>
<path d="M16.2898 12.568V10.411H21.2224V7.12444H7.79081V10.411H12.724V12.5663C8.71475 12.7504 5.7002 13.5445 5.7002 14.4957C5.7002 15.4469 8.7162 16.2409 12.724 16.4262V23.3354H16.291V16.4256C20.293 16.2409 23.3015 15.4474 23.3015 14.4971C23.3015 13.5468 20.293 12.7533 16.291 12.5686L16.2898 12.568ZM16.291 15.8404V15.8386C16.1904 15.845 15.6733 15.8761 14.522 15.8761C13.6015 15.8761 12.954 15.85 12.7257 15.8381V15.841C9.18368 15.6841 6.53975 15.0672 6.53975 14.3292C6.53975 13.5911 9.18397 12.9752 12.7257 12.818V15.2265C12.9577 15.2424 13.6213 15.2816 14.5371 15.2816C15.637 15.2816 16.1901 15.2357 16.2916 15.2265V12.818C19.8267 12.9755 22.4645 13.5929 22.4645 14.3283C22.4645 15.0638 19.8249 15.6812 16.291 15.8386" fill="white"/>
</svg>
